<svg width="188" height="34" viewBox="0 0 188 34" fill="none" xmlns="http://www.w3.org/2000/svg">
<path opacity="0.5" d="M10.952 0.799998H0.98V26H11.492C14.624 26 17.072 25.388 18.8 24.092C20.528 22.796 21.428 21.068 21.428 18.836C21.428 17.108 20.888 15.776 19.844 14.84C18.8 13.904 17.324 13.292 15.416 13.076C17.036 12.86 18.296 12.248 19.232 11.312C20.132 10.376 20.6 9.08 20.6 7.46C20.6 5.336 19.736 3.68 18.044 2.528C16.352 1.376 13.976 0.799998 10.952 0.799998ZM7.604 10.844V5.804H11.06C11.96 5.804 12.68 6.056 13.184 6.488C13.688 6.956 13.976 7.568 13.976 8.324C13.976 9.116 13.688 9.728 13.184 10.16C12.68 10.628 11.96 10.844 11.06 10.844H7.604ZM7.604 20.96V15.776H11.564C12.5 15.776 13.256 16.028 13.796 16.46C14.336 16.928 14.624 17.576 14.624 18.368C14.624 19.196 14.336 19.844 13.796 20.276C13.256 20.744 12.5 20.96 11.564 20.96H7.604ZM24.3153 0.799998V26H30.5433V0.799998H24.3153ZM37.7683 25.064C39.2803 25.856 41.0803 26.216 43.1323 26.216C45.1483 26.216 46.9483 25.856 48.4603 25.064C49.9723 24.272 51.1603 23.156 51.9883 21.716C52.8163 20.276 53.2483 18.62 53.2483 16.712C53.2483 14.84 52.8163 13.148 51.9883 11.708C51.1603 10.268 49.9723 9.188 48.4603 8.396C46.9483 7.604 45.1483 7.208 43.1323 7.208C41.0803 7.208 39.2803 7.604 37.7683 8.396C36.2563 9.188 35.0683 10.268 34.2403 11.708C33.4123 13.148 33.0163 14.84 33.0163 16.712C33.0163 18.62 33.4123 20.276 34.2403 21.716C35.0683 23.156 36.2563 24.272 37.7683 25.064ZM45.9043 20.024C45.2203 20.852 44.2843 21.248 43.1323 21.248C41.9443 21.248 41.0083 20.852 40.3603 20.024C39.6763 19.196 39.3523 18.08 39.3523 16.712C39.3523 15.344 39.6763 14.264 40.3603 13.436C41.0083 12.608 41.9443 12.176 43.1323 12.176C44.2843 12.176 45.2203 12.608 45.9043 13.436C46.5523 14.264 46.9123 15.344 46.9123 16.712C46.9123 18.08 46.5523 19.196 45.9043 20.024ZM59.741 25.064C61.253 25.856 63.053 26.216 65.105 26.216C67.121 26.216 68.921 25.856 70.433 25.064C71.945 24.272 73.133 23.156 73.961 21.716C74.789 20.276 75.221 18.62 75.221 16.712C75.221 14.84 74.789 13.148 73.961 11.708C73.133 10.268 71.945 9.188 70.433 8.396C68.921 7.604 67.121 7.208 65.105 7.208C63.053 7.208 61.253 7.604 59.741 8.396C58.229 9.188 57.041 10.268 56.213 11.708C55.385 13.148 54.989 14.84 54.989 16.712C54.989 18.62 55.385 20.276 56.213 21.716C57.041 23.156 58.229 24.272 59.741 25.064ZM67.877 20.024C67.193 20.852 66.257 21.248 65.105 21.248C63.917 21.248 62.981 20.852 62.333 20.024C61.649 19.196 61.325 18.08 61.325 16.712C61.325 15.344 61.649 14.264 62.333 13.436C62.981 12.608 63.917 12.176 65.105 12.176C66.257 12.176 67.193 12.608 67.877 13.436C68.525 14.264 68.885 15.344 68.885 16.712C68.885 18.08 68.525 19.196 67.877 20.024ZM105.69 9.224C104.466 7.892 102.882 7.208 100.938 7.208C99.5697 7.208 98.3457 7.46 97.2657 7.964C96.1857 8.468 95.2857 9.224 94.6017 10.16C93.5577 8.216 91.7577 7.208 89.2017 7.208C87.9057 7.244 86.7897 7.46 85.9257 7.856C85.0617 8.288 84.3057 8.864 83.6577 9.656L83.1897 7.424H77.7177V26.036H83.9457V15.704C83.9457 14.588 84.1977 13.724 84.7377 13.112C85.2777 12.5 85.9977 12.176 86.9337 12.176C87.8697 12.176 88.5177 12.464 88.9137 13.04C89.3097 13.616 89.5257 14.516 89.5257 15.704V26.036H95.7537V15.704C95.7537 14.588 96.0057 13.724 96.5817 13.112C97.1217 12.5 97.8417 12.176 98.7417 12.176C99.6417 12.176 100.29 12.5 100.722 13.076C101.118 13.652 101.334 14.552 101.334 15.704V26.036H107.562V16.064C107.562 12.824 106.914 10.556 105.69 9.224ZM126.216 8.36C124.92 7.604 123.48 7.208 121.896 7.208C119.736 7.208 117.972 7.964 116.676 9.476V0.799998H110.448V26H115.92L116.46 23.588C117.792 25.352 119.592 26.216 121.896 26.216C123.516 26.216 124.956 25.82 126.252 25.028C127.512 24.236 128.52 23.12 129.24 21.68C129.96 20.24 130.32 18.548 130.32 16.676C130.32 14.804 129.96 13.112 129.24 11.672C128.52 10.232 127.512 9.152 126.216 8.36ZM122.976 20.024C122.292 20.888 121.392 21.284 120.276 21.284C119.124 21.284 118.224 20.888 117.576 20.024C116.928 19.196 116.604 18.08 116.604 16.712C116.604 15.344 116.928 14.264 117.576 13.4C118.224 12.572 119.124 12.14 120.276 12.14C121.392 12.14 122.292 12.572 122.976 13.4C123.624 14.264 123.984 15.344 123.984 16.712C123.984 18.08 123.624 19.196 122.976 20.024ZM133.24 11.708C132.448 13.148 132.052 14.84 132.052 16.784C132.052 18.728 132.448 20.384 133.276 21.788C134.104 23.228 135.328 24.308 136.912 25.064C138.496 25.856 140.368 26.216 142.564 26.216C144.22 26.216 145.696 25.928 146.992 25.352C148.288 24.776 149.296 23.984 150.052 22.976C150.808 21.968 151.276 20.888 151.456 19.664H145.336C144.976 21.032 143.896 21.716 142.132 21.716C140.044 21.716 138.82 20.564 138.532 18.26V18.188H151.492C151.6 17.612 151.672 16.964 151.672 16.172C151.672 14.408 151.24 12.86 150.412 11.492C149.548 10.124 148.396 9.08 146.884 8.324C145.372 7.604 143.644 7.208 141.7 7.208C139.756 7.208 138.064 7.604 136.624 8.396C135.184 9.188 134.032 10.268 133.24 11.708ZM145.516 14.372H138.604C138.748 13.508 139.108 12.824 139.684 12.356C140.26 11.888 141.052 11.636 142.024 11.636C142.96 11.636 143.716 11.888 144.328 12.356C144.94 12.824 145.336 13.508 145.516 14.372ZM166.495 7.424H165.595C164.299 7.424 163.219 7.676 162.427 8.108C161.599 8.576 160.915 9.26 160.375 10.16L159.871 7.424H154.147V26H160.375V17.072C160.375 14.336 161.635 12.932 164.155 12.932H166.495V7.424ZM187.256 7.424H181.748L181.28 9.764C179.84 8.036 178.04 7.136 175.808 7.136C174.188 7.136 172.748 7.532 171.452 8.288C170.156 9.08 169.184 10.16 168.464 11.564C167.744 12.968 167.384 14.588 167.384 16.424C167.384 18.26 167.744 19.88 168.464 21.284C169.184 22.688 170.156 23.768 171.452 24.56C172.748 25.352 174.188 25.712 175.808 25.712C178.004 25.712 179.804 24.992 181.172 23.48V25.424C181.172 26.576 180.812 27.44 180.164 28.016C179.48 28.628 178.544 28.916 177.392 28.916C175.52 28.916 174.368 28.16 173.972 26.576H167.708C167.744 28.772 168.608 30.464 170.264 31.652C171.92 32.84 174.152 33.416 176.924 33.416C180.452 33.416 183.08 32.696 184.736 31.256C186.392 29.816 187.256 27.944 187.256 25.64V7.424ZM180.128 19.7C179.48 20.492 178.58 20.888 177.428 20.888C176.276 20.888 175.376 20.492 174.728 19.7C174.044 18.908 173.72 17.828 173.72 16.496C173.72 15.2 174.044 14.12 174.728 13.292C175.376 12.5 176.276 12.068 177.428 12.068C178.58 12.068 179.48 12.5 180.128 13.292C180.776 14.12 181.1 15.2 181.1 16.496C181.1 17.828 180.776 18.908 180.128 19.7Z" fill="black"/>
</svg>
