<svg width="112" height="29" viewBox="0 0 112 29" fill="none" xmlns="http://www.w3.org/2000/svg">
<path opacity="0.5" d="M0.8 28V25.624C1.352 25.6 1.808 25.528 2.168 25.408C2.552 25.288 2.84 25.012 3.032 24.58C3.248 24.148 3.356 23.452 3.356 22.492V8.704C3.356 8.056 3.368 7.432 3.392 6.832C3.44 6.232 3.476 5.776 3.5 5.464C3.116 5.488 2.636 5.512 2.06 5.536C1.484 5.536 1.064 5.548 0.8 5.572V2.8H18.8L19.016 9.784H16.64C16.64 8.464 16.412 7.468 15.956 6.796C15.5 6.124 14.936 5.68 14.264 5.464C13.592 5.224 12.932 5.116 12.284 5.14L10.988 5.176C10.484 5.176 10.052 5.248 9.692 5.392C9.332 5.512 9.056 5.8 8.864 6.256C8.672 6.688 8.576 7.372 8.576 8.308V14.572H12.284L12.14 11.476H14.912V20.224H12.536C12.536 19.216 12.38 18.484 12.068 18.028C11.756 17.572 11.324 17.296 10.772 17.2C10.244 17.08 9.656 17.032 9.008 17.056H8.576V22.096C8.576 22.744 8.564 23.368 8.54 23.968C8.516 24.568 8.48 25.024 8.432 25.336C8.696 25.312 9.044 25.3 9.476 25.3C9.908 25.276 10.328 25.264 10.736 25.264C11.168 25.24 11.468 25.228 11.636 25.228V28H0.8ZM28.3507 28.576C26.6227 28.576 25.0627 28.204 23.6707 27.46C22.2787 26.716 21.1747 25.66 20.3587 24.292C19.5667 22.9 19.1707 21.268 19.1707 19.396C19.1707 17.404 19.5787 15.664 20.3947 14.176C21.2347 12.664 22.3387 11.5 23.7067 10.684C25.0987 9.844 26.6107 9.424 28.2427 9.424C29.9707 9.424 31.5187 9.796 32.8867 10.54C34.2547 11.284 35.3347 12.352 36.1267 13.744C36.9187 15.112 37.3147 16.756 37.3147 18.676C37.3147 20.692 36.9307 22.444 36.1627 23.932C35.3947 25.42 34.3387 26.572 32.9947 27.388C31.6507 28.18 30.1027 28.576 28.3507 28.576ZM28.4947 26.02C29.4547 25.996 30.1747 25.66 30.6547 25.012C31.1587 24.364 31.5067 23.548 31.6987 22.564C31.8907 21.58 31.9867 20.584 31.9867 19.576C31.9867 18.688 31.9147 17.788 31.7707 16.876C31.6507 15.964 31.4467 15.136 31.1587 14.392C30.8707 13.648 30.4747 13.048 29.9707 12.592C29.4907 12.136 28.8907 11.92 28.1707 11.944C27.2347 11.968 26.4907 12.304 25.9387 12.952C25.4107 13.6 25.0267 14.416 24.7867 15.4C24.5707 16.36 24.4627 17.368 24.4627 18.424C24.4627 19.648 24.5947 20.848 24.8587 22.024C25.1227 23.2 25.5427 24.172 26.1187 24.94C26.7187 25.684 27.5107 26.044 28.4947 26.02ZM39.9213 25.66C40.5933 25.66 41.0733 25.528 41.3613 25.264C41.6493 25 41.8293 24.628 41.9013 24.148C41.9973 23.644 42.0453 23.08 42.0453 22.456V16.408C42.0453 15.976 42.0573 15.496 42.0813 14.968C42.1053 14.416 42.1413 13.876 42.1893 13.348C41.8053 13.372 41.3493 13.396 40.8213 13.42C40.3173 13.42 39.9333 13.432 39.6693 13.456V10.72H41.1093C42.0453 10.72 42.8973 10.6 43.6653 10.36C44.4573 10.12 44.9733 9.88 45.2133 9.64H46.9773C47.0253 9.88 47.0613 10.336 47.0853 11.008C47.1093 11.656 47.1213 12.232 47.1213 12.736C47.7693 11.944 48.3813 11.308 48.9573 10.828C49.5333 10.348 50.0973 10 50.6493 9.784C51.2253 9.544 51.8013 9.424 52.3773 9.424C53.2173 9.424 53.9493 9.664 54.5733 10.144C55.1973 10.6 55.5093 11.356 55.5093 12.412C55.5093 12.772 55.4253 13.156 55.2573 13.564C55.0893 13.948 54.8253 14.272 54.4653 14.536C54.1053 14.8 53.6133 14.932 52.9893 14.932C52.5093 14.932 52.0173 14.788 51.5133 14.5C51.0093 14.212 50.7213 13.66 50.6493 12.844C50.1693 12.844 49.6893 13.048 49.2093 13.456C48.7293 13.84 48.2973 14.308 47.9133 14.86C47.5533 15.388 47.3013 15.88 47.1573 16.336V22.204C47.1573 22.54 47.1453 23.02 47.1213 23.644C47.0973 24.244 47.0613 24.82 47.0133 25.372C47.3973 25.324 47.8173 25.3 48.2733 25.3C48.7533 25.276 49.1133 25.264 49.3533 25.264V28H39.9213V25.66ZM57.8696 7.66C57.8696 7.228 57.8696 6.736 57.8696 6.184C57.8936 5.608 57.9296 5.056 57.9776 4.528C57.5936 4.552 57.1376 4.576 56.6096 4.6C56.1056 4.6 55.7216 4.612 55.4576 4.636V1.9C56.5856 1.9 57.5216 1.84 58.2656 1.72C59.0336 1.6 59.6336 1.456 60.0656 1.288C60.5216 1.12 60.8336 0.963999 61.0016 0.819998H62.9456V11.368C63.7616 10.648 64.5896 10.144 65.4296 9.856C66.2696 9.568 67.0616 9.424 67.8056 9.424C69.2456 9.424 70.5056 9.796 71.5856 10.54C72.6896 11.284 73.5416 12.34 74.1416 13.708C74.7656 15.076 75.0776 16.684 75.0776 18.532C75.0776 20.452 74.7176 22.18 73.9976 23.716C73.3016 25.228 72.3056 26.416 71.0096 27.28C69.7136 28.144 68.1536 28.576 66.3296 28.576C65.6816 28.576 64.8536 28.432 63.8456 28.144C62.8616 27.88 61.9496 27.304 61.1096 26.416L60.0296 28H57.8696V7.66ZM62.9456 22.6C62.9456 23.416 63.0776 24.064 63.3416 24.544C63.6056 25.024 63.9416 25.372 64.3496 25.588C64.7576 25.804 65.1656 25.924 65.5736 25.948C66.6536 25.972 67.4936 25.66 68.0936 25.012C68.7176 24.364 69.1496 23.512 69.3896 22.456C69.6536 21.376 69.7856 20.248 69.7856 19.072C69.7856 17.968 69.6536 16.924 69.3896 15.94C69.1256 14.956 68.7056 14.164 68.1296 13.564C67.5536 12.94 66.7976 12.64 65.8616 12.664C65.2616 12.688 64.7096 12.844 64.2056 13.132C63.7016 13.396 63.2816 13.756 62.9456 14.212V22.6ZM86.2463 28.576C84.4943 28.576 82.9463 28.192 81.6023 27.424C80.2583 26.632 79.2143 25.528 78.4703 24.112C77.7263 22.672 77.3543 20.98 77.3543 19.036C77.3543 17.356 77.7263 15.784 78.4703 14.32C79.2143 12.856 80.2583 11.68 81.6023 10.792C82.9703 9.88 84.5543 9.424 86.3543 9.424C87.3623 9.424 88.3463 9.568 89.3063 9.856C90.2663 10.12 91.1303 10.588 91.8983 11.26C92.6903 11.932 93.3143 12.844 93.7703 13.996C94.2503 15.148 94.4783 16.588 94.4543 18.316L82.6463 18.532C82.6463 19.828 82.8023 20.992 83.1143 22.024C83.4503 23.056 83.9903 23.872 84.7343 24.472C85.4783 25.072 86.4743 25.372 87.7223 25.372C88.2023 25.372 88.7423 25.288 89.3423 25.12C89.9663 24.952 90.5903 24.676 91.2143 24.292C91.8623 23.884 92.4623 23.344 93.0143 22.672L94.6343 24.184C93.7703 25.408 92.8463 26.344 91.8623 26.992C90.8783 27.616 89.8943 28.036 88.9103 28.252C87.9503 28.468 87.0623 28.576 86.2463 28.576ZM82.8623 16.012H89.4863C89.4623 15.004 89.3183 14.212 89.0543 13.636C88.8143 13.036 88.4783 12.604 88.0463 12.34C87.6143 12.076 87.1103 11.944 86.5343 11.944C85.4783 11.944 84.6503 12.328 84.0503 13.096C83.4503 13.84 83.0543 14.812 82.8623 16.012ZM105.365 28.576C104.333 28.576 103.325 28.444 102.341 28.18C101.357 27.916 100.589 27.58 100.037 27.172L100.109 28.252H97.3734L97.2294 22.06H99.5694C99.6414 22.78 99.9294 23.44 100.433 24.04C100.937 24.64 101.597 25.12 102.413 25.48C103.229 25.816 104.141 25.984 105.149 25.984C105.557 25.984 105.941 25.924 106.301 25.804C106.685 25.684 106.997 25.492 107.237 25.228C107.501 24.94 107.633 24.592 107.633 24.184C107.633 23.728 107.465 23.356 107.129 23.068C106.817 22.78 106.349 22.504 105.725 22.24C105.125 21.976 104.369 21.676 103.457 21.34C102.713 21.052 101.957 20.752 101.189 20.44C100.445 20.128 99.7494 19.756 99.1014 19.324C98.4774 18.868 97.9734 18.316 97.5894 17.668C97.2054 16.996 97.0134 16.18 97.0134 15.22C97.0134 14.524 97.1454 13.84 97.4094 13.168C97.6734 12.472 98.0814 11.848 98.6334 11.296C99.1854 10.72 99.8814 10.264 100.721 9.928C101.585 9.592 102.605 9.424 103.781 9.424C104.429 9.424 105.161 9.532 105.977 9.748C106.817 9.94 107.525 10.24 108.101 10.648V9.604H110.837V15.976H108.497C108.353 15.136 108.053 14.416 107.597 13.816C107.165 13.216 106.601 12.76 105.905 12.448C105.209 12.112 104.429 11.944 103.565 11.944C102.965 11.944 102.413 12.088 101.909 12.376C101.429 12.664 101.189 13.156 101.189 13.852C101.189 14.404 101.381 14.848 101.765 15.184C102.149 15.496 102.677 15.76 103.349 15.976C104.021 16.192 104.765 16.444 105.581 16.732C106.805 17.14 107.885 17.62 108.821 18.172C109.781 18.724 110.537 19.396 111.089 20.188C111.641 20.956 111.917 21.904 111.917 23.032C111.917 24.28 111.605 25.312 110.981 26.128C110.357 26.944 109.541 27.556 108.533 27.964C107.549 28.372 106.493 28.576 105.365 28.576Z" fill="black"/>
</svg>
